<?xml version="1.0" encoding="iso-8859-1"?>
<!-- Generator: Adobe Illustrator 19.0.0, SVG Export Plug-In . SVG Version: 6.00 Build 0)  -->
<svg version="1.1" id="Layer_1" xmlns="http://www.w3.org/2000/svg" xmlns:xlink="http://www.w3.org/1999/xlink" x="0px" y="0px"
	 viewBox="0 0 512.001 512.001" style="enable-background:new 0 0 512.001 512.001;" xml:space="preserve">
<path style="fill:#D2B98F;" d="M273.656,512.001h-35.31c-4.875,0-8.828-3.953-8.828-8.828v-88.278h52.966v88.278
	C282.483,508.048,278.531,512.001,273.656,512.001z"/>
<rect x="229.518" y="414.897" style="fill:#B9A685;" width="52.966" height="26.483"/>
<path style="fill:#FFDCA0;" d="M354.242,423.725H157.759c-9.294,0-16.998-7.207-17.617-16.481l-16.556-248.346L256,26.484
	l132.414,132.414l-16.556,248.346C371.239,416.518,363.537,423.725,354.242,423.725z"/>
<circle style="fill:#464655;" cx="256" cy="220.69" r="44.138"/>
<circle style="fill:#D2B98F;" cx="256" cy="317.794" r="17.655"/>
<polygon style="fill:#E8CA97;" points="123.587,158.897 126.25,198.855 256,69.11 385.75,198.855 388.414,158.897 256,26.484 "/>
<path style="fill:#D2B98F;" d="M409.414,196.036L256,42.627L102.587,196.036c-3.447,3.447-9.036,3.447-12.484,0l-12.481-12.481
	c-3.447-3.447-3.447-9.036,0-12.484L243.516,5.172c6.894-6.895,18.073-6.895,24.969,0L434.379,171.07
	c3.447,3.447,3.447,9.036,0,12.484l-12.481,12.481C418.45,199.483,412.861,199.483,409.414,196.036z"/>
<g>
</g>
<g>
</g>
<g>
</g>
<g>
</g>
<g>
</g>
<g>
</g>
<g>
</g>
<g>
</g>
<g>
</g>
<g>
</g>
<g>
</g>
<g>
</g>
<g>
</g>
<g>
</g>
<g>
</g>
</svg>
